# xmcd CD database file
#
# Track frame offsets:
#	150
#	16812
#	39865
#	52307
#	75796
#	98261
#	113506
#	126025
#	140740
#	160858
#	179654
#	200415
#	224128
#	245186
#	273701
#
# Disc length: 3846 seconds
#
# Revision: 1
# Processed by: cddbd v1.5.1PL2 Copyright (c) Steve Scherf et al.
# Submitted via: CDex 1.51
#
DISCID=d30f040f
DTITLE=Marc Demuth and Sofia Ribeiro - Dança da solidão
DYEAR=2005
DGENRE=Jazz
TTITLE0=Vera Cruz
TTITLE1=Não É Fácil O Amor
TTITLE2=You'd Be So Nice, To Come Home To
TTITLE3=Angel Eyes
TTITLE4=Blame It On My Youth
TTITLE5=Dança Da Solidão
TTITLE6=Carinhoso
TTITLE7=Basin Street Blues
TTITLE8=Willow Weep For Me
TTITLE9=I'm Calling You
TTITLE10=Alone Together, Solitary Two
TTITLE11=Nature Boy
TTITLE12=Ó Gente Da Minha Terra
TTITLE13=Black Coffee
TTITLE14=Blue Suede Shoes
EXTD=YEAR: 2005
EXTT0=
EXTT1=
EXTT2=
EXTT3=
EXTT4=
EXTT5=
EXTT6=
EXTT7=
EXTT8=
EXTT9=
EXTT10=
EXTT11=
EXTT12=
EXTT13=
EXTT14=
PLAYORDER=
